<svg width="14" height="15" viewBox="0 0 14 15" fill="none" xmlns="http://www.w3.org/2000/svg">
<path d="M13.5 7.49209C13.5 11.0207 10.5966 13.8934 7 13.8934C3.40343 13.8934 0.5 11.0207 0.5 7.49209C0.5 3.96344 3.40343 1.09082 7 1.09082C10.5966 1.09082 13.5 3.96344 13.5 7.49209Z" stroke="black"/>
<path d="M9.5 7.49209C9.5 9.34592 9.17238 11.0004 8.66277 12.1727C8.40763 12.7596 8.1167 13.2031 7.81905 13.4927C7.52373 13.78 7.24765 13.8934 7 13.8934C6.75235 13.8934 6.47627 13.78 6.18095 13.4927C5.8833 13.2031 5.59237 12.7596 5.33723 12.1727C4.82762 11.0004 4.5 9.34592 4.5 7.49209C4.5 5.63827 4.82762 3.9838 5.33723 2.81149C5.59237 2.22455 5.8833 1.78113 6.18095 1.49152C6.47627 1.20417 6.75235 1.09082 7 1.09082C7.24765 1.09082 7.52373 1.20417 7.81905 1.49152C8.1167 1.78113 8.40763 2.22455 8.66277 2.81149C9.17238 3.9838 9.5 5.63827 9.5 7.49209Z" stroke="black"/>
<line x1="1" y1="6.99219" x2="13" y2="6.99219" stroke="black"/>
</svg>
